{
	"asset":{
		"generator":"Khronos glTF Blender I/O v5.0.21",
		"version":"2.0"
	},
	"scene":0,
	"scenes":[
		{
			"name":"Scene",
			"nodes":[
				17
			]
		}
	],
	"nodes":[
		{
			"name":"Bone.002",
			"rotation":[
				-4.429071276401686e-10,
				-8.326404454805925e-09,
				-0.014645767398178577,
				0.9998927712440491
			],
			"translation":[
				7.265021917390868e-15,
				0.6805305480957031,
				-2.842170943040401e-14
			]
		},
		{
			"children":[
				0
			],
			"name":"Bone.001",
			"rotation":[
				6.724577161776324e-08,
				-1.1369980512654365e-08,
				0.006172488443553448,
				0.9999809265136719
			],
			"translation":[
				0,
				1,
				0
			]
		},
		{
			"children":[
				1
			],
			"name":"Bone",
			"rotation":[
				0.7071067690849304,
				0,
				0,
				0.7071067690849304
			],
			"translation":[
				0.008400972001254559,
				-2.1671900185538107e-07,
				1.6129865646362305
			]
		},
		{
			"name":"Bone.005",
			"rotation":[
				6.425937471021825e-08,
				1.4682451698888599e-08,
				-0.5933093428611755,
				0.8049745559692383
			],
			"scale":[
				0.9999999403953552,
				0.9999999403953552,
				1
			],
			"translation":[
				-2.3841863594498136e-07,
				0.32428181171417236,
				-6.394884621840902e-14
			]
		},
		{
			"children":[
				3
			],
			"name":"Bone.004",
			"rotation":[
				7.626022124895826e-08,
				6.257148132959856e-10,
				-0.02723236382007599,
				0.9996291399002075
			],
			"translation":[
				-3.278256031080673e-07,
				0.8750476837158203,
				-4.263256414560601e-14
			]
		},
		{
			"children":[
				4
			],
			"name":"Bone.003",
			"rotation":[
				0.43807530403137207,
				0.5550587177276611,
				-0.5550584197044373,
				0.4380752742290497
			],
			"translation":[
				0.5699664950370789,
				-4.1438283915340435e-07,
				3.0841503143310547
			]
		},
		{
			"name":"Bone.009",
			"rotation":[
				-1.14309504084531e-08,
				-8.379532800972811e-08,
				-0.007707961369305849,
				0.9999703168869019
			],
			"scale":[
				0.9999999403953552,
				0.9999999403953552,
				1
			],
			"translation":[
				7.450762673499867e-09,
				1.0005977153778076,
				1.5631940186722204e-13
			]
		},
		{
			"children":[
				6
			],
			"name":"Bone.008",
			"rotation":[
				7.241372941280133e-07,
				-1.5555265520106332e-08,
				0.5243794322013855,
				0.8514847159385681
			],
			"scale":[
				0.9999998807907104,
				0.9999998211860657,
				1
			],
			"translation":[
				2.384189770054945e-07,
				0.38726556301116943,
				2.5579538487363607e-13
			]
		},
		{
			"children":[
				7
			],
			"name":"Bone.007",
			"rotation":[
				4.4001816945637984e-07,
				-4.8640213634598695e-08,
				0.2399861216545105,
				0.9707763195037842
			],
			"scale":[
				0.9999999403953552,
				0.9999998211860657,
				1
			],
			"translation":[
				9.313266957633459e-08,
				0.55645352602005,
				-2.842170943040401e-14
			]
		},
		{
			"children":[
				8
			],
			"name":"Bone.006",
			"rotation":[
				0.5147417783737183,
				-0.48481085896492004,
				0.48481008410453796,
				0.5147413015365601
			],
			"scale":[
				1,
				1.0000001192092896,
				1
			],
			"translation":[
				-0.39014893770217896,
				-4.159822424298909e-07,
				3.0960540771484375
			]
		},
		{
			"name":"Bone.012",
			"rotation":[
				-1.3509342977613414e-07,
				1.5302599365440983e-07,
				0.06575016677379608,
				0.997836172580719
			],
			"scale":[
				0.9999998211860657,
				0.9999999403953552,
				1
			],
			"translation":[
				-7.450114747342695e-09,
				1.218140721321106,
				-1.4210854715202004e-13
			]
		},
		{
			"children":[
				10
			],
			"name":"Bone.011",
			"rotation":[
				-5.445423667538307e-08,
				-2.4694420730497768e-08,
				0.06414639204740524,
				0.9979404807090759
			],
			"translation":[
				-1.4900997769018431e-08,
				1,
				7.105427357601002e-14
			]
		},
		{
			"children":[
				11
			],
			"name":"Bone.010",
			"rotation":[
				0.08671663701534271,
				-0.701769232749939,
				0.7017692923545837,
				0.08671800047159195
			],
			"scale":[
				1.0000001192092896,
				0.9999998807907104,
				1
			],
			"translation":[
				-0.3319413363933563,
				-1.8200290696768207e-07,
				1.3546030521392822
			]
		},
		{
			"name":"Bone.015",
			"rotation":[
				1.158796223421632e-07,
				5.840859103045659e-07,
				-0.06575017422437668,
				0.9978361129760742
			],
			"scale":[
				0.9999998807907104,
				0.9999999403953552,
				1
			],
			"translation":[
				-5.2153769303231456e-08,
				1.2181408405303955,
				-5.684341886080802e-14
			]
		},
		{
			"children":[
				13
			],
			"name":"Bone.014",
			"rotation":[
				1.605048538522169e-07,
				-2.474512825756392e-07,
				-0.06414644420146942,
				0.9979404807090759
			],
			"scale":[
				0.9999998807907104,
				0.9999999403953552,
				1
			],
			"translation":[
				-5.9604495561416115e-08,
				0.9999999403953552,
				-2.842170943040401e-14
			]
		},
		{
			"children":[
				14
			],
			"name":"Bone.013",
			"rotation":[
				0.08671793341636658,
				0.7017694115638733,
				-0.7017691135406494,
				0.08671674132347107
			],
			"translation":[
				0.4062875211238861,
				-1.8106229049408284e-07,
				1.347602128982544
			]
		},
		{
			"mesh":0,
			"name":"Object_2",
			"skin":0
		},
		{
			"children":[
				16,
				2,
				5,
				9,
				12,
				15
			],
			"name":"Armature"
		}
	],
	"animations":[
		{
			"channels":[
				{
					"sampler":0,
					"target":{
						"node":2,
						"path":"translation"
					}
				},
				{
					"sampler":1,
					"target":{
						"node":2,
						"path":"rotation"
					}
				},
				{
					"sampler":2,
					"target":{
						"node":2,
						"path":"scale"
					}
				},
				{
					"sampler":3,
					"target":{
						"node":1,
						"path":"translation"
					}
				},
				{
					"sampler":4,
					"target":{
						"node":1,
						"path":"rotation"
					}
				},
				{
					"sampler":5,
					"target":{
						"node":1,
						"path":"scale"
					}
				},
				{
					"sampler":6,
					"target":{
						"node":0,
						"path":"translation"
					}
				},
				{
					"sampler":7,
					"target":{
						"node":0,
						"path":"rotation"
					}
				},
				{
					"sampler":8,
					"target":{
						"node":0,
						"path":"scale"
					}
				},
				{
					"sampler":9,
					"target":{
						"node":5,
						"path":"translation"
					}
				},
				{
					"sampler":10,
					"target":{
						"node":5,
						"path":"rotation"
					}
				},
				{
					"sampler":11,
					"target":{
						"node":5,
						"path":"scale"
					}
				},
				{
					"sampler":12,
					"target":{
						"node":4,
						"path":"translation"
					}
				},
				{
					"sampler":13,
					"target":{
						"node":4,
						"path":"rotation"
					}
				},
				{
					"sampler":14,
					"target":{
						"node":4,
						"path":"scale"
					}
				},
				{
					"sampler":15,
					"target":{
						"node":3,
						"path":"translation"
					}
				},
				{
					"sampler":16,
					"target":{
						"node":3,
						"path":"rotation"
					}
				},
				{
					"sampler":17,
					"target":{
						"node":3,
						"path":"scale"
					}
				},
				{
					"sampler":18,
					"target":{
						"node":9,
						"path":"translation"
					}
				},
				{
					"sampler":19,
					"target":{
						"node":9,
						"path":"rotation"
					}
				},
				{
					"sampler":20,
					"target":{
						"node":9,
						"path":"scale"
					}
				},
				{
					"sampler":21,
					"target":{
						"node":8,
						"path":"translation"
					}
				},
				{
					"sampler":22,
					"target":{
						"node":8,
						"path":"rotation"
					}
				},
				{
					"sampler":23,
					"target":{
						"node":8,
						"path":"scale"
					}
				},
				{
					"sampler":24,
					"target":{
						"node":7,
						"path":"translation"
					}
				},
				{
					"sampler":25,
					"target":{
						"node":7,
						"path":"rotation"
					}
				},
				{
					"sampler":26,
					"target":{
						"node":7,
						"path":"scale"
					}
				},
				{
					"sampler":27,
					"target":{
						"node":6,
						"path":"translation"
					}
				},
				{
					"sampler":28,
					"target":{
						"node":6,
						"path":"rotation"
					}
				},
				{
					"sampler":29,
					"target":{
						"node":6,
						"path":"scale"
					}
				},
				{
					"sampler":30,
					"target":{
						"node":12,
						"path":"translation"
					}
				},
				{
					"sampler":31,
					"target":{
						"node":12,
						"path":"rotation"
					}
				},
				{
					"sampler":32,
					"target":{
						"node":12,
						"path":"scale"
					}
				},
				{
					"sampler":33,
					"target":{
						"node":11,
						"path":"translation"
					}
				},
				{
					"sampler":34,
					"target":{
						"node":11,
						"path":"rotation"
					}
				},
				{
					"sampler":35,
					"target":{
						"node":11,
						"path":"scale"
					}
				},
				{
					"sampler":36,
					"target":{
						"node":10,
						"path":"translation"
					}
				},
				{
					"sampler":37,
					"target":{
						"node":10,
						"path":"rotation"
					}
				},
				{
					"sampler":38,
					"target":{
						"node":10,
						"path":"scale"
					}
				},
				{
					"sampler":39,
					"target":{
						"node":15,
						"path":"translation"
					}
				},
				{
					"sampler":40,
					"target":{
						"node":15,
						"path":"rotation"
					}
				},
				{
					"sampler":41,
					"target":{
						"node":15,
						"path":"scale"
					}
				},
				{
					"sampler":42,
					"target":{
						"node":14,
						"path":"translation"
					}
				},
				{
					"sampler":43,
					"target":{
						"node":14,
						"path":"rotation"
					}
				},
				{
					"sampler":44,
					"target":{
						"node":14,
						"path":"scale"
					}
				},
				{
					"sampler":45,
					"target":{
						"node":13,
						"path":"translation"
					}
				},
				{
					"sampler":46,
					"target":{
						"node":13,
						"path":"rotation"
					}
				},
				{
					"sampler":47,
					"target":{
						"node":13,
						"path":"scale"
					}
				}
			],
			"name":"Blast",
			"samplers":[
				{
					"input":8,
					"interpolation":"STEP",
					"output":9
				},
				{
					"input":10,
					"interpolation":"LINEAR",
					"output":11
				},
				{
					"input":8,
					"interpolation":"STEP",
					"output":12
				},
				{
					"input":8,
					"interpolation":"STEP",
					"output":13
				},
				{
					"input":8,
					"interpolation":"STEP",
					"output":14
				},
				{
					"input":8,
					"interpolation":"STEP",
					"output":12
				},
				{
					"input":8,
					"interpolation":"STEP",
					"output":15
				},
				{
					"input":8,
					"interpolation":"STEP",
					"output":16
				},
				{
					"input":8,
					"interpolation":"STEP",
					"output":17
				},
				{
					"input":8,
					"interpolation":"STEP",
					"output":18
				},
				{
					"input":8,
					"interpolation":"STEP",
					"output":19
				},
				{
					"input":8,
					"interpolation":"STEP",
					"output":12
				},
				{
					"input":8,
					"interpolation":"STEP",
					"output":20
				},
				{
					"input":8,
					"interpolation":"STEP",
					"output":21
				},
				{
					"input":8,
					"interpolation":"STEP",
					"output":12
				},
				{
					"input":8,
					"interpolation":"STEP",
					"output":22
				},
				{
					"input":8,
					"interpolation":"STEP",
					"output":23
				},
				{
					"input":8,
					"interpolation":"STEP",
					"output":24
				},
				{
					"input":8,
					"interpolation":"STEP",
					"output":25
				},
				{
					"input":10,
					"interpolation":"LINEAR",
					"output":26
				},
				{
					"input":8,
					"interpolation":"STEP",
					"output":12
				},
				{
					"input":8,
					"interpolation":"STEP",
					"output":27
				},
				{
					"input":8,
					"interpolation":"STEP",
					"output":28
				},
				{
					"input":8,
					"interpolation":"STEP",
					"output":29
				},
				{
					"input":8,
					"interpolation":"STEP",
					"output":30
				},
				{
					"input":10,
					"interpolation":"LINEAR",
					"output":31
				},
				{
					"input":8,
					"interpolation":"STEP",
					"output":24
				},
				{
					"input":8,
					"interpolation":"STEP",
					"output":32
				},
				{
					"input":10,
					"interpolation":"LINEAR",
					"output":33
				},
				{
					"input":8,
					"interpolation":"STEP",
					"output":12
				},
				{
					"input":8,
					"interpolation":"STEP",
					"output":34
				},
				{
					"input":8,
					"interpolation":"STEP",
					"output":35
				},
				{
					"input":8,
					"interpolation":"STEP",
					"output":36
				},
				{
					"input":8,
					"interpolation":"STEP",
					"output":37
				},
				{
					"input":8,
					"interpolation":"STEP",
					"output":38
				},
				{
					"input":8,
					"interpolation":"STEP",
					"output":17
				},
				{
					"input":8,
					"interpolation":"STEP",
					"output":39
				},
				{
					"input":8,
					"interpolation":"STEP",
					"output":40
				},
				{
					"input":8,
					"interpolation":"STEP",
					"output":41
				},
				{
					"input":8,
					"interpolation":"STEP",
					"output":42
				},
				{
					"input":8,
					"interpolation":"STEP",
					"output":43
				},
				{
					"input":8,
					"interpolation":"STEP",
					"output":12
				},
				{
					"input":8,
					"interpolation":"STEP",
					"output":44
				},
				{
					"input":8,
					"interpolation":"STEP",
					"output":45
				},
				{
					"input":8,
					"interpolation":"STEP",
					"output":46
				},
				{
					"input":8,
					"interpolation":"STEP",
					"output":47
				},
				{
					"input":8,
					"interpolation":"STEP",
					"output":48
				},
				{
					"input":8,
					"interpolation":"STEP",
					"output":46
				}
			]
		}
	],
	"meshes":[
		{
			"name":"Object_0",
			"primitives":[
				{
					"attributes":{
						"POSITION":0,
						"NORMAL":1,
						"TEXCOORD_0":2,
						"COLOR_0":3,
						"JOINTS_0":4,
						"WEIGHTS_0":5
					},
					"indices":6
				}
			]
		}
	],
	"skins":[
		{
			"inverseBindMatrices":7,
			"joints":[
				2,
				1,
				0,
				5,
				4,
				3,
				9,
				8,
				7,
				6,
				12,
				11,
				10,
				15,
				14,
				13
			],
			"name":"Armature"
		}
	],
	"accessors":[
		{
			"bufferView":0,
			"componentType":5126,
			"count":501,
			"max":[
				2.0007500648498535,
				0.8765699863433838,
				4.044169902801514
			],
			"min":[
				-1.969730019569397,
				-0.8979299664497375,
				-2.3991000652313232
			],
			"type":"VEC3"
		},
		{
			"bufferView":1,
			"componentType":5126,
			"count":501,
			"type":"VEC3"
		},
		{
			"bufferView":2,
			"componentType":5126,
			"count":501,
			"type":"VEC2"
		},
		{
			"bufferView":3,
			"componentType":5123,
			"count":501,
			"normalized":true,
			"type":"VEC4"
		},
		{
			"bufferView":4,
			"componentType":5121,
			"count":501,
			"type":"VEC4"
		},
		{
			"bufferView":5,
			"componentType":5126,
			"count":501,
			"type":"VEC4"
		},
		{
			"bufferView":6,
			"componentType":5123,
			"count":1830,
			"type":"SCALAR"
		},
		{
			"bufferView":7,
			"componentType":5126,
			"count":16,
			"type":"MAT4"
		},
		{
			"bufferView":8,
			"componentType":5126,
			"count":2,
			"max":[
				2
			],
			"min":[
				0
			],
			"type":"SCALAR"
		},
		{
			"bufferView":9,
			"componentType":5126,
			"count":2,
			"type":"VEC3"
		},
		{
			"bufferView":10,
			"componentType":5126,
			"count":49,
			"max":[
				2
			],
			"min":[
				0
			],
			"type":"SCALAR"
		},
		{
			"bufferView":11,
			"componentType":5126,
			"count":49,
			"type":"VEC4"
		},
		{
			"bufferView":12,
			"componentType":5126,
			"count":2,
			"type":"VEC3"
		},
		{
			"bufferView":13,
			"componentType":5126,
			"count":2,
			"type":"VEC3"
		},
		{
			"bufferView":14,
			"componentType":5126,
			"count":2,
			"type":"VEC4"
		},
		{
			"bufferView":15,
			"componentType":5126,
			"count":2,
			"type":"VEC3"
		},
		{
			"bufferView":16,
			"componentType":5126,
			"count":2,
			"type":"VEC4"
		},
		{
			"bufferView":17,
			"componentType":5126,
			"count":2,
			"type":"VEC3"
		},
		{
			"bufferView":18,
			"componentType":5126,
			"count":2,
			"type":"VEC3"
		},
		{
			"bufferView":19,
			"componentType":5126,
			"count":2,
			"type":"VEC4"
		},
		{
			"bufferView":20,
			"componentType":5126,
			"count":2,
			"type":"VEC3"
		},
		{
			"bufferView":21,
			"componentType":5126,
			"count":2,
			"type":"VEC4"
		},
		{
			"bufferView":22,
			"componentType":5126,
			"count":2,
			"type":"VEC3"
		},
		{
			"bufferView":23,
			"componentType":5126,
			"count":2,
			"type":"VEC4"
		},
		{
			"bufferView":24,
			"componentType":5126,
			"count":2,
			"type":"VEC3"
		},
		{
			"bufferView":25,
			"componentType":5126,
			"count":2,
			"type":"VEC3"
		},
		{
			"bufferView":26,
			"componentType":5126,
			"count":49,
			"type":"VEC4"
		},
		{
			"bufferView":27,
			"componentType":5126,
			"count":2,
			"type":"VEC3"
		},
		{
			"bufferView":28,
			"componentType":5126,
			"count":2,
			"type":"VEC4"
		},
		{
			"bufferView":29,
			"componentType":5126,
			"count":2,
			"type":"VEC3"
		},
		{
			"bufferView":30,
			"componentType":5126,
			"count":2,
			"type":"VEC3"
		},
		{
			"bufferView":31,
			"componentType":5126,
			"count":49,
			"type":"VEC4"
		},
		{
			"bufferView":32,
			"componentType":5126,
			"count":2,
			"type":"VEC3"
		},
		{
			"bufferView":33,
			"componentType":5126,
			"count":49,
			"type":"VEC4"
		},
		{
			"bufferView":34,
			"componentType":5126,
			"count":2,
			"type":"VEC3"
		},
		{
			"bufferView":35,
			"componentType":5126,
			"count":2,
			"type":"VEC4"
		},
		{
			"bufferView":36,
			"componentType":5126,
			"count":2,
			"type":"VEC3"
		},
		{
			"bufferView":37,
			"componentType":5126,
			"count":2,
			"type":"VEC3"
		},
		{
			"bufferView":38,
			"componentType":5126,
			"count":2,
			"type":"VEC4"
		},
		{
			"bufferView":39,
			"componentType":5126,
			"count":2,
			"type":"VEC3"
		},
		{
			"bufferView":40,
			"componentType":5126,
			"count":2,
			"type":"VEC4"
		},
		{
			"bufferView":41,
			"componentType":5126,
			"count":2,
			"type":"VEC3"
		},
		{
			"bufferView":42,
			"componentType":5126,
			"count":2,
			"type":"VEC3"
		},
		{
			"bufferView":43,
			"componentType":5126,
			"count":2,
			"type":"VEC4"
		},
		{
			"bufferView":44,
			"componentType":5126,
			"count":2,
			"type":"VEC3"
		},
		{
			"bufferView":45,
			"componentType":5126,
			"count":2,
			"type":"VEC4"
		},
		{
			"bufferView":46,
			"componentType":5126,
			"count":2,
			"type":"VEC3"
		},
		{
			"bufferView":47,
			"componentType":5126,
			"count":2,
			"type":"VEC3"
		},
		{
			"bufferView":48,
			"componentType":5126,
			"count":2,
			"type":"VEC4"
		}
	],
	"bufferViews":[
		{
			"buffer":0,
			"byteLength":6012,
			"byteOffset":0,
			"target":34962
		},
		{
			"buffer":0,
			"byteLength":6012,
			"byteOffset":6012,
			"target":34962
		},
		{
			"buffer":0,
			"byteLength":4008,
			"byteOffset":12024,
			"target":34962
		},
		{
			"buffer":0,
			"byteLength":4008,
			"byteOffset":16032,
			"target":34962
		},
		{
			"buffer":0,
			"byteLength":2004,
			"byteOffset":20040,
			"target":34962
		},
		{
			"buffer":0,
			"byteLength":8016,
			"byteOffset":22044,
			"target":34962
		},
		{
			"buffer":0,
			"byteLength":3660,
			"byteOffset":30060,
			"target":34963
		},
		{
			"buffer":0,
			"byteLength":1024,
			"byteOffset":33720
		},
		{
			"buffer":0,
			"byteLength":8,
			"byteOffset":34744
		},
		{
			"buffer":0,
			"byteLength":24,
			"byteOffset":34752
		},
		{
			"buffer":0,
			"byteLength":196,
			"byteOffset":34776
		},
		{
			"buffer":0,
			"byteLength":784,
			"byteOffset":34972
		},
		{
			"buffer":0,
			"byteLength":24,
			"byteOffset":35756
		},
		{
			"buffer":0,
			"byteLength":24,
			"byteOffset":35780
		},
		{
			"buffer":0,
			"byteLength":32,
			"byteOffset":35804
		},
		{
			"buffer":0,
			"byteLength":24,
			"byteOffset":35836
		},
		{
			"buffer":0,
			"byteLength":32,
			"byteOffset":35860
		},
		{
			"buffer":0,
			"byteLength":24,
			"byteOffset":35892
		},
		{
			"buffer":0,
			"byteLength":24,
			"byteOffset":35916
		},
		{
			"buffer":0,
			"byteLength":32,
			"byteOffset":35940
		},
		{
			"buffer":0,
			"byteLength":24,
			"byteOffset":35972
		},
		{
			"buffer":0,
			"byteLength":32,
			"byteOffset":35996
		},
		{
			"buffer":0,
			"byteLength":24,
			"byteOffset":36028
		},
		{
			"buffer":0,
			"byteLength":32,
			"byteOffset":36052
		},
		{
			"buffer":0,
			"byteLength":24,
			"byteOffset":36084
		},
		{
			"buffer":0,
			"byteLength":24,
			"byteOffset":36108
		},
		{
			"buffer":0,
			"byteLength":784,
			"byteOffset":36132
		},
		{
			"buffer":0,
			"byteLength":24,
			"byteOffset":36916
		},
		{
			"buffer":0,
			"byteLength":32,
			"byteOffset":36940
		},
		{
			"buffer":0,
			"byteLength":24,
			"byteOffset":36972
		},
		{
			"buffer":0,
			"byteLength":24,
			"byteOffset":36996
		},
		{
			"buffer":0,
			"byteLength":784,
			"byteOffset":37020
		},
		{
			"buffer":0,
			"byteLength":24,
			"byteOffset":37804
		},
		{
			"buffer":0,
			"byteLength":784,
			"byteOffset":37828
		},
		{
			"buffer":0,
			"byteLength":24,
			"byteOffset":38612
		},
		{
			"buffer":0,
			"byteLength":32,
			"byteOffset":38636
		},
		{
			"buffer":0,
			"byteLength":24,
			"byteOffset":38668
		},
		{
			"buffer":0,
			"byteLength":24,
			"byteOffset":38692
		},
		{
			"buffer":0,
			"byteLength":32,
			"byteOffset":38716
		},
		{
			"buffer":0,
			"byteLength":24,
			"byteOffset":38748
		},
		{
			"buffer":0,
			"byteLength":32,
			"byteOffset":38772
		},
		{
			"buffer":0,
			"byteLength":24,
			"byteOffset":38804
		},
		{
			"buffer":0,
			"byteLength":24,
			"byteOffset":38828
		},
		{
			"buffer":0,
			"byteLength":32,
			"byteOffset":38852
		},
		{
			"buffer":0,
			"byteLength":24,
			"byteOffset":38884
		},
		{
			"buffer":0,
			"byteLength":32,
			"byteOffset":38908
		},
		{
			"buffer":0,
			"byteLength":24,
			"byteOffset":38940
		},
		{
			"buffer":0,
			"byteLength":24,
			"byteOffset":38964
		},
		{
			"buffer":0,
			"byteLength":32,
			"byteOffset":38988
		}
	],
	"buffers":[
		{
			"byteLength":39020,
			"uri":"data:application/octet-stream;base64,"
		}
	]
}
