{
	"asset":{
		"generator":"Khronos glTF Blender I/O v5.0.21",
		"version":"2.0"
	},
	"scene":0,
	"scenes":[
		{
			"name":"Scene",
			"nodes":[
				17
			]
		}
	],
	"nodes":[
		{
			"name":"Bone.003",
			"rotation":[
				0.018052339553833008,
				-3.470012329902294e-18,
				-4.3040131458838005e-09,
				0.9998370409011841
			],
			"scale":[
				1,
				0.9999998807907104,
				0.9999999403953552
			],
			"translation":[
				-3.936158717758945e-15,
				0.9180574417114258,
				8.940696716308594e-08
			]
		},
		{
			"children":[
				0
			],
			"name":"Bone.002",
			"rotation":[
				0.004349617753177881,
				3.5548072054329347e-14,
				-1.0370300174145086e-09,
				0.9999905824661255
			],
			"scale":[
				1,
				0.9999999403953552,
				0.9999999403953552
			],
			"translation":[
				-1.8147013432960948e-14,
				1.3195886611938477,
				-1.4901161193847656e-08
			]
		},
		{
			"children":[
				1
			],
			"name":"Bone.001",
			"rotation":[
				-0.015458351001143456,
				-1.1919509290692076e-07,
				1.8427797066067342e-09,
				0.9998805522918701
			],
			"translation":[
				0,
				1.0000001192092896,
				0
			]
		},
		{
			"children":[
				2
			],
			"name":"Bone",
			"translation":[
				-3.8344511836778253e-16,
				1.7268832921981812,
				-1.4345368146896362
			]
		},
		{
			"name":"Bone.007",
			"rotation":[
				0.01805233769118786,
				-7.1100555456248e-15,
				-4.304012701794591e-09,
				0.9998370409011841
			],
			"translation":[
				-2.2111293221052262e-15,
				0.918058454990387,
				7.450580596923828e-09
			]
		},
		{
			"children":[
				4
			],
			"name":"Bone.006",
			"rotation":[
				0.004349627066403627,
				3.5525302961674204e-15,
				-1.037031793771348e-09,
				0.9999905824661255
			],
			"scale":[
				1,
				0.9999999403953552,
				0.9999999403953552
			],
			"translation":[
				-4.3477242976541655e-16,
				1.319588541984558,
				0
			]
		},
		{
			"children":[
				5
			],
			"name":"Bone.005",
			"rotation":[
				-0.01545835379511118,
				-1.191950360635019e-07,
				1.8427792625175243e-09,
				0.9998805522918701
			],
			"scale":[
				1,
				0.9999999403953552,
				1
			],
			"translation":[
				0,
				1,
				0
			]
		},
		{
			"children":[
				6
			],
			"name":"Bone.004",
			"translation":[
				-4.3477242976541655e-16,
				1.9580409526824951,
				-0.34673643112182617
			]
		},
		{
			"name":"Bone.011",
			"rotation":[
				0.01805240660905838,
				-7.113524992576753e-15,
				-4.304028689006145e-09,
				0.9998370409011841
			],
			"scale":[
				1,
				0.9999998807907104,
				0.9999999403953552
			],
			"translation":[
				1.3823443232709805e-15,
				0.918057918548584,
				0
			]
		},
		{
			"children":[
				8
			],
			"name":"Bone.010",
			"rotation":[
				0.0043495530262589455,
				3.562938637023281e-15,
				-1.0370144742921639e-09,
				0.9999905824661255
			],
			"scale":[
				1,
				0.9999999403953552,
				0.9999999403953552
			],
			"translation":[
				-1.1052153658409891e-14,
				1.3195884227752686,
				-7.450580596923828e-08
			]
		},
		{
			"children":[
				9
			],
			"name":"Bone.009",
			"rotation":[
				-0.015458351001143456,
				-1.1919506448521133e-07,
				1.8427792625175243e-09,
				0.9998805522918701
			],
			"translation":[
				0,
				1,
				0
			]
		},
		{
			"children":[
				10
			],
			"name":"Bone.008",
			"translation":[
				-3.9401251612926997e-16,
				1.7744746208190918,
				0.5031076669692993
			]
		},
		{
			"name":"Bone.015",
			"rotation":[
				0.0018656590254977345,
				-7.444638923612638e-24,
				4.142568329044726e-19,
				0.9999982714653015
			],
			"translation":[
				3.639594695233322e-23,
				0.7751769423484802,
				-8.195638656616211e-08
			]
		},
		{
			"children":[
				12
			],
			"name":"Bone.014",
			"rotation":[
				0.01509921159595251,
				7.397000402407246e-24,
				3.352676553216494e-18,
				0.9998860359191895
			],
			"scale":[
				1,
				0.9999999403953552,
				0.9999999403953552
			],
			"translation":[
				2.6469779601696886e-23,
				0.5371443033218384,
				4.0978193283081055e-08
			]
		},
		{
			"children":[
				13
			],
			"name":"Bone.013",
			"rotation":[
				0.016620172187685966,
				1.819987400634201e-16,
				1.880075520865727e-16,
				0.9998618960380554
			],
			"scale":[
				1,
				0.9999998211860657,
				0.9999998807907104
			],
			"translation":[
				-3.970466940254533e-23,
				0.5926989912986755,
				-5.960464477539063e-08
			]
		},
		{
			"children":[
				14
			],
			"name":"Bone.012",
			"rotation":[
				-0.02294768951833248,
				-7.47162204119302e-17,
				-7.47162468817098e-17,
				0.9997366070747375
			],
			"translation":[
				-3.7740662048680663e-16,
				1.6996883153915405,
				1.3189579248428345
			]
		},
		{
			"mesh":0,
			"name":"Cube",
			"skin":0
		},
		{
			"children":[
				16,
				3,
				7,
				11,
				15
			],
			"name":"Armature"
		}
	],
	"animations":[
		{
			"channels":[
				{
					"sampler":0,
					"target":{
						"node":3,
						"path":"translation"
					}
				},
				{
					"sampler":1,
					"target":{
						"node":3,
						"path":"rotation"
					}
				},
				{
					"sampler":2,
					"target":{
						"node":3,
						"path":"scale"
					}
				},
				{
					"sampler":3,
					"target":{
						"node":2,
						"path":"translation"
					}
				},
				{
					"sampler":4,
					"target":{
						"node":2,
						"path":"rotation"
					}
				},
				{
					"sampler":5,
					"target":{
						"node":2,
						"path":"scale"
					}
				},
				{
					"sampler":6,
					"target":{
						"node":1,
						"path":"translation"
					}
				},
				{
					"sampler":7,
					"target":{
						"node":1,
						"path":"rotation"
					}
				},
				{
					"sampler":8,
					"target":{
						"node":1,
						"path":"scale"
					}
				},
				{
					"sampler":9,
					"target":{
						"node":0,
						"path":"translation"
					}
				},
				{
					"sampler":10,
					"target":{
						"node":0,
						"path":"rotation"
					}
				},
				{
					"sampler":11,
					"target":{
						"node":0,
						"path":"scale"
					}
				},
				{
					"sampler":12,
					"target":{
						"node":7,
						"path":"translation"
					}
				},
				{
					"sampler":13,
					"target":{
						"node":7,
						"path":"rotation"
					}
				},
				{
					"sampler":14,
					"target":{
						"node":7,
						"path":"scale"
					}
				},
				{
					"sampler":15,
					"target":{
						"node":6,
						"path":"translation"
					}
				},
				{
					"sampler":16,
					"target":{
						"node":6,
						"path":"rotation"
					}
				},
				{
					"sampler":17,
					"target":{
						"node":6,
						"path":"scale"
					}
				},
				{
					"sampler":18,
					"target":{
						"node":5,
						"path":"translation"
					}
				},
				{
					"sampler":19,
					"target":{
						"node":5,
						"path":"rotation"
					}
				},
				{
					"sampler":20,
					"target":{
						"node":5,
						"path":"scale"
					}
				},
				{
					"sampler":21,
					"target":{
						"node":4,
						"path":"translation"
					}
				},
				{
					"sampler":22,
					"target":{
						"node":4,
						"path":"rotation"
					}
				},
				{
					"sampler":23,
					"target":{
						"node":4,
						"path":"scale"
					}
				},
				{
					"sampler":24,
					"target":{
						"node":11,
						"path":"translation"
					}
				},
				{
					"sampler":25,
					"target":{
						"node":11,
						"path":"rotation"
					}
				},
				{
					"sampler":26,
					"target":{
						"node":11,
						"path":"scale"
					}
				},
				{
					"sampler":27,
					"target":{
						"node":10,
						"path":"translation"
					}
				},
				{
					"sampler":28,
					"target":{
						"node":10,
						"path":"rotation"
					}
				},
				{
					"sampler":29,
					"target":{
						"node":10,
						"path":"scale"
					}
				},
				{
					"sampler":30,
					"target":{
						"node":9,
						"path":"translation"
					}
				},
				{
					"sampler":31,
					"target":{
						"node":9,
						"path":"rotation"
					}
				},
				{
					"sampler":32,
					"target":{
						"node":9,
						"path":"scale"
					}
				},
				{
					"sampler":33,
					"target":{
						"node":8,
						"path":"translation"
					}
				},
				{
					"sampler":34,
					"target":{
						"node":8,
						"path":"rotation"
					}
				},
				{
					"sampler":35,
					"target":{
						"node":8,
						"path":"scale"
					}
				},
				{
					"sampler":36,
					"target":{
						"node":15,
						"path":"translation"
					}
				},
				{
					"sampler":37,
					"target":{
						"node":15,
						"path":"rotation"
					}
				},
				{
					"sampler":38,
					"target":{
						"node":15,
						"path":"scale"
					}
				},
				{
					"sampler":39,
					"target":{
						"node":14,
						"path":"translation"
					}
				},
				{
					"sampler":40,
					"target":{
						"node":14,
						"path":"rotation"
					}
				},
				{
					"sampler":41,
					"target":{
						"node":14,
						"path":"scale"
					}
				},
				{
					"sampler":42,
					"target":{
						"node":13,
						"path":"translation"
					}
				},
				{
					"sampler":43,
					"target":{
						"node":13,
						"path":"rotation"
					}
				},
				{
					"sampler":44,
					"target":{
						"node":13,
						"path":"scale"
					}
				},
				{
					"sampler":45,
					"target":{
						"node":12,
						"path":"translation"
					}
				},
				{
					"sampler":46,
					"target":{
						"node":12,
						"path":"rotation"
					}
				},
				{
					"sampler":47,
					"target":{
						"node":12,
						"path":"scale"
					}
				}
			],
			"name":"ArmatureAction",
			"samplers":[
				{
					"input":7,
					"interpolation":"STEP",
					"output":8
				},
				{
					"input":7,
					"interpolation":"STEP",
					"output":9
				},
				{
					"input":7,
					"interpolation":"STEP",
					"output":10
				},
				{
					"input":7,
					"interpolation":"STEP",
					"output":11
				},
				{
					"input":12,
					"interpolation":"LINEAR",
					"output":13
				},
				{
					"input":7,
					"interpolation":"STEP",
					"output":10
				},
				{
					"input":7,
					"interpolation":"LINEAR",
					"output":14
				},
				{
					"input":12,
					"interpolation":"LINEAR",
					"output":15
				},
				{
					"input":7,
					"interpolation":"STEP",
					"output":16
				},
				{
					"input":7,
					"interpolation":"LINEAR",
					"output":17
				},
				{
					"input":12,
					"interpolation":"LINEAR",
					"output":18
				},
				{
					"input":7,
					"interpolation":"LINEAR",
					"output":19
				},
				{
					"input":7,
					"interpolation":"STEP",
					"output":20
				},
				{
					"input":7,
					"interpolation":"STEP",
					"output":9
				},
				{
					"input":7,
					"interpolation":"STEP",
					"output":10
				},
				{
					"input":7,
					"interpolation":"STEP",
					"output":21
				},
				{
					"input":7,
					"interpolation":"STEP",
					"output":22
				},
				{
					"input":7,
					"interpolation":"STEP",
					"output":23
				},
				{
					"input":7,
					"interpolation":"STEP",
					"output":24
				},
				{
					"input":7,
					"interpolation":"STEP",
					"output":25
				},
				{
					"input":7,
					"interpolation":"STEP",
					"output":26
				},
				{
					"input":7,
					"interpolation":"STEP",
					"output":27
				},
				{
					"input":7,
					"interpolation":"STEP",
					"output":28
				},
				{
					"input":7,
					"interpolation":"STEP",
					"output":10
				},
				{
					"input":7,
					"interpolation":"STEP",
					"output":29
				},
				{
					"input":7,
					"interpolation":"STEP",
					"output":9
				},
				{
					"input":7,
					"interpolation":"STEP",
					"output":10
				},
				{
					"input":7,
					"interpolation":"STEP",
					"output":30
				},
				{
					"input":12,
					"interpolation":"LINEAR",
					"output":31
				},
				{
					"input":7,
					"interpolation":"LINEAR",
					"output":32
				},
				{
					"input":7,
					"interpolation":"LINEAR",
					"output":33
				},
				{
					"input":12,
					"interpolation":"LINEAR",
					"output":34
				},
				{
					"input":7,
					"interpolation":"STEP",
					"output":35
				},
				{
					"input":7,
					"interpolation":"LINEAR",
					"output":36
				},
				{
					"input":12,
					"interpolation":"LINEAR",
					"output":37
				},
				{
					"input":7,
					"interpolation":"STEP",
					"output":38
				},
				{
					"input":7,
					"interpolation":"STEP",
					"output":39
				},
				{
					"input":7,
					"interpolation":"STEP",
					"output":40
				},
				{
					"input":7,
					"interpolation":"STEP",
					"output":10
				},
				{
					"input":7,
					"interpolation":"STEP",
					"output":41
				},
				{
					"input":7,
					"interpolation":"STEP",
					"output":42
				},
				{
					"input":7,
					"interpolation":"STEP",
					"output":23
				},
				{
					"input":7,
					"interpolation":"STEP",
					"output":43
				},
				{
					"input":12,
					"interpolation":"LINEAR",
					"output":44
				},
				{
					"input":7,
					"interpolation":"LINEAR",
					"output":45
				},
				{
					"input":7,
					"interpolation":"LINEAR",
					"output":46
				},
				{
					"input":12,
					"interpolation":"LINEAR",
					"output":47
				},
				{
					"input":7,
					"interpolation":"LINEAR",
					"output":48
				}
			]
		}
	],
	"materials":[
		{
			"doubleSided":true,
			"name":"Material",
			"pbrMetallicRoughness":{
				"baseColorTexture":{
					"index":0
				},
				"metallicFactor":0,
				"roughnessFactor":0.5
			}
		}
	],
	"meshes":[
		{
			"name":"Cube",
			"primitives":[
				{
					"attributes":{
						"POSITION":0,
						"NORMAL":1,
						"TEXCOORD_0":2,
						"JOINTS_0":3,
						"WEIGHTS_0":4
					},
					"indices":5,
					"material":0
				}
			]
		}
	],
	"textures":[
		{
			"sampler":0,
			"source":0
		}
	],
	"images":[
		{
			"bufferView":6,
			"mimeType":"image/png",
			"name":"HandTexture"
		}
	],
	"skins":[
		{
			"inverseBindMatrices":6,
			"joints":[
				3,
				2,
				1,
				0,
				7,
				6,
				5,
				4,
				11,
				10,
				9,
				8,
				15,
				14,
				13,
				12
			],
			"name":"Armature"
		}
	],
	"accessors":[
		{
			"bufferView":0,
			"componentType":5126,
			"count":672,
			"max":[
				0.6543381810188293,
				5.789004325866699,
				1.7923868894577026
			],
			"min":[
				-0.6545732617378235,
				1.5545616149902344,
				-1.8408269882202148
			],
			"type":"VEC3"
		},
		{
			"bufferView":1,
			"componentType":5126,
			"count":672,
			"type":"VEC3"
		},
		{
			"bufferView":2,
			"componentType":5126,
			"count":672,
			"type":"VEC2"
		},
		{
			"bufferView":3,
			"componentType":5121,
			"count":672,
			"type":"VEC4"
		},
		{
			"bufferView":4,
			"componentType":5126,
			"count":672,
			"type":"VEC4"
		},
		{
			"bufferView":5,
			"componentType":5123,
			"count":1044,
			"type":"SCALAR"
		},
		{
			"bufferView":7,
			"componentType":5126,
			"count":16,
			"type":"MAT4"
		},
		{
			"bufferView":8,
			"componentType":5126,
			"count":2,
			"max":[
				2.5
			],
			"min":[
				0
			],
			"type":"SCALAR"
		},
		{
			"bufferView":9,
			"componentType":5126,
			"count":2,
			"type":"VEC3"
		},
		{
			"bufferView":10,
			"componentType":5126,
			"count":2,
			"type":"VEC4"
		},
		{
			"bufferView":11,
			"componentType":5126,
			"count":2,
			"type":"VEC3"
		},
		{
			"bufferView":12,
			"componentType":5126,
			"count":2,
			"type":"VEC3"
		},
		{
			"bufferView":13,
			"componentType":5126,
			"count":61,
			"max":[
				2.5
			],
			"min":[
				0
			],
			"type":"SCALAR"
		},
		{
			"bufferView":14,
			"componentType":5126,
			"count":61,
			"type":"VEC4"
		},
		{
			"bufferView":15,
			"componentType":5126,
			"count":2,
			"type":"VEC3"
		},
		{
			"bufferView":16,
			"componentType":5126,
			"count":61,
			"type":"VEC4"
		},
		{
			"bufferView":17,
			"componentType":5126,
			"count":2,
			"type":"VEC3"
		},
		{
			"bufferView":18,
			"componentType":5126,
			"count":2,
			"type":"VEC3"
		},
		{
			"bufferView":19,
			"componentType":5126,
			"count":61,
			"type":"VEC4"
		},
		{
			"bufferView":20,
			"componentType":5126,
			"count":2,
			"type":"VEC3"
		},
		{
			"bufferView":21,
			"componentType":5126,
			"count":2,
			"type":"VEC3"
		},
		{
			"bufferView":22,
			"componentType":5126,
			"count":2,
			"type":"VEC3"
		},
		{
			"bufferView":23,
			"componentType":5126,
			"count":2,
			"type":"VEC4"
		},
		{
			"bufferView":24,
			"componentType":5126,
			"count":2,
			"type":"VEC3"
		},
		{
			"bufferView":25,
			"componentType":5126,
			"count":2,
			"type":"VEC3"
		},
		{
			"bufferView":26,
			"componentType":5126,
			"count":2,
			"type":"VEC4"
		},
		{
			"bufferView":27,
			"componentType":5126,
			"count":2,
			"type":"VEC3"
		},
		{
			"bufferView":28,
			"componentType":5126,
			"count":2,
			"type":"VEC3"
		},
		{
			"bufferView":29,
			"componentType":5126,
			"count":2,
			"type":"VEC4"
		},
		{
			"bufferView":30,
			"componentType":5126,
			"count":2,
			"type":"VEC3"
		},
		{
			"bufferView":31,
			"componentType":5126,
			"count":2,
			"type":"VEC3"
		},
		{
			"bufferView":32,
			"componentType":5126,
			"count":61,
			"type":"VEC4"
		},
		{
			"bufferView":33,
			"componentType":5126,
			"count":2,
			"type":"VEC3"
		},
		{
			"bufferView":34,
			"componentType":5126,
			"count":2,
			"type":"VEC3"
		},
		{
			"bufferView":35,
			"componentType":5126,
			"count":61,
			"type":"VEC4"
		},
		{
			"bufferView":36,
			"componentType":5126,
			"count":2,
			"type":"VEC3"
		},
		{
			"bufferView":37,
			"componentType":5126,
			"count":2,
			"type":"VEC3"
		},
		{
			"bufferView":38,
			"componentType":5126,
			"count":61,
			"type":"VEC4"
		},
		{
			"bufferView":39,
			"componentType":5126,
			"count":2,
			"type":"VEC3"
		},
		{
			"bufferView":40,
			"componentType":5126,
			"count":2,
			"type":"VEC3"
		},
		{
			"bufferView":41,
			"componentType":5126,
			"count":2,
			"type":"VEC4"
		},
		{
			"bufferView":42,
			"componentType":5126,
			"count":2,
			"type":"VEC3"
		},
		{
			"bufferView":43,
			"componentType":5126,
			"count":2,
			"type":"VEC4"
		},
		{
			"bufferView":44,
			"componentType":5126,
			"count":2,
			"type":"VEC3"
		},
		{
			"bufferView":45,
			"componentType":5126,
			"count":61,
			"type":"VEC4"
		},
		{
			"bufferView":46,
			"componentType":5126,
			"count":2,
			"type":"VEC3"
		},
		{
			"bufferView":47,
			"componentType":5126,
			"count":2,
			"type":"VEC3"
		},
		{
			"bufferView":48,
			"componentType":5126,
			"count":61,
			"type":"VEC4"
		},
		{
			"bufferView":49,
			"componentType":5126,
			"count":2,
			"type":"VEC3"
		}
	],
	"bufferViews":[
		{
			"buffer":0,
			"byteLength":8064,
			"byteOffset":0,
			"target":34962
		},
		{
			"buffer":0,
			"byteLength":8064,
			"byteOffset":8064,
			"target":34962
		},
		{
			"buffer":0,
			"byteLength":5376,
			"byteOffset":16128,
			"target":34962
		},
		{
			"buffer":0,
			"byteLength":2688,
			"byteOffset":21504,
			"target":34962
		},
		{
			"buffer":0,
			"byteLength":10752,
			"byteOffset":24192,
			"target":34962
		},
		{
			"buffer":0,
			"byteLength":2088,
			"byteOffset":34944,
			"target":34963
		},
		{
			"buffer":0,
			"byteLength":79936,
			"byteOffset":37032
		},
		{
			"buffer":0,
			"byteLength":1024,
			"byteOffset":116968
		},
		{
			"buffer":0,
			"byteLength":8,
			"byteOffset":117992
		},
		{
			"buffer":0,
			"byteLength":24,
			"byteOffset":118000
		},
		{
			"buffer":0,
			"byteLength":32,
			"byteOffset":118024
		},
		{
			"buffer":0,
			"byteLength":24,
			"byteOffset":118056
		},
		{
			"buffer":0,
			"byteLength":24,
			"byteOffset":118080
		},
		{
			"buffer":0,
			"byteLength":244,
			"byteOffset":118104
		},
		{
			"buffer":0,
			"byteLength":976,
			"byteOffset":118348
		},
		{
			"buffer":0,
			"byteLength":24,
			"byteOffset":119324
		},
		{
			"buffer":0,
			"byteLength":976,
			"byteOffset":119348
		},
		{
			"buffer":0,
			"byteLength":24,
			"byteOffset":120324
		},
		{
			"buffer":0,
			"byteLength":24,
			"byteOffset":120348
		},
		{
			"buffer":0,
			"byteLength":976,
			"byteOffset":120372
		},
		{
			"buffer":0,
			"byteLength":24,
			"byteOffset":121348
		},
		{
			"buffer":0,
			"byteLength":24,
			"byteOffset":121372
		},
		{
			"buffer":0,
			"byteLength":24,
			"byteOffset":121396
		},
		{
			"buffer":0,
			"byteLength":32,
			"byteOffset":121420
		},
		{
			"buffer":0,
			"byteLength":24,
			"byteOffset":121452
		},
		{
			"buffer":0,
			"byteLength":24,
			"byteOffset":121476
		},
		{
			"buffer":0,
			"byteLength":32,
			"byteOffset":121500
		},
		{
			"buffer":0,
			"byteLength":24,
			"byteOffset":121532
		},
		{
			"buffer":0,
			"byteLength":24,
			"byteOffset":121556
		},
		{
			"buffer":0,
			"byteLength":32,
			"byteOffset":121580
		},
		{
			"buffer":0,
			"byteLength":24,
			"byteOffset":121612
		},
		{
			"buffer":0,
			"byteLength":24,
			"byteOffset":121636
		},
		{
			"buffer":0,
			"byteLength":976,
			"byteOffset":121660
		},
		{
			"buffer":0,
			"byteLength":24,
			"byteOffset":122636
		},
		{
			"buffer":0,
			"byteLength":24,
			"byteOffset":122660
		},
		{
			"buffer":0,
			"byteLength":976,
			"byteOffset":122684
		},
		{
			"buffer":0,
			"byteLength":24,
			"byteOffset":123660
		},
		{
			"buffer":0,
			"byteLength":24,
			"byteOffset":123684
		},
		{
			"buffer":0,
			"byteLength":976,
			"byteOffset":123708
		},
		{
			"buffer":0,
			"byteLength":24,
			"byteOffset":124684
		},
		{
			"buffer":0,
			"byteLength":24,
			"byteOffset":124708
		},
		{
			"buffer":0,
			"byteLength":32,
			"byteOffset":124732
		},
		{
			"buffer":0,
			"byteLength":24,
			"byteOffset":124764
		},
		{
			"buffer":0,
			"byteLength":32,
			"byteOffset":124788
		},
		{
			"buffer":0,
			"byteLength":24,
			"byteOffset":124820
		},
		{
			"buffer":0,
			"byteLength":976,
			"byteOffset":124844
		},
		{
			"buffer":0,
			"byteLength":24,
			"byteOffset":125820
		},
		{
			"buffer":0,
			"byteLength":24,
			"byteOffset":125844
		},
		{
			"buffer":0,
			"byteLength":976,
			"byteOffset":125868
		},
		{
			"buffer":0,
			"byteLength":24,
			"byteOffset":126844
		}
	],
	"samplers":[
		{
			"magFilter":9729,
			"minFilter":9987
		}
	],
	"buffers":[
		{
			"byteLength":126868,
			"uri":"data:application/octet-stream;base64,"
		}
	]
}
