# Blender 5.0.0
# www.blender.org
g Cube_Mesh
v -1.792387 0.580194 1.586947
v 1.829367 -0.580102 1.554562
v -1.792387 -0.579958 1.586947
v 1.829367 0.594591 1.554562
v 0.923296 -0.654338 1.586947
v 0.000590 -0.654338 1.586947
v -0.922115 -0.654338 1.586947
v -0.922115 0.654573 1.586947
v 0.000590 0.654573 1.586947
v 0.923296 0.654573 1.586947
v -1.673664 0.491230 2.081078
v 1.840827 -0.091849 3.522941
v -1.673664 -0.537773 2.114269
v 1.840827 0.751421 2.900506
v 0.994513 -0.273362 3.526300
v 0.001063 -0.489550 3.568161
v -0.860788 0.222314 3.523301
v -0.860788 0.720682 2.597605
v 0.001063 0.644367 3.452543
v 0.994513 0.730619 3.051751
v -0.981382 0.649508 1.586947
v -0.981382 -0.649273 1.586947
v -0.916147 0.585752 2.066684
v -0.916147 -0.607544 2.094696
v -0.062248 0.654573 1.586947
v -0.062248 -0.654338 1.586947
v -0.057631 0.630799 3.216996
v -0.057631 -0.424201 3.407891
v 0.860457 0.654573 1.586947
v 0.860457 -0.654338 1.586947
v 0.804220 0.710614 3.417887
v 0.804220 -0.448178 3.612056
v -0.124570 0.986643 3.645108
v -0.793850 1.170179 3.601739
v 0.737281 -0.474742 4.196234
v 0.068001 -0.509186 4.196609
v 1.792883 0.534980 4.012131
v 1.087640 0.489609 4.068385
v 1.792883 1.010210 3.366901
v -0.979282 -0.338709 2.866147
v -1.610530 -0.331980 2.824345
v 1.087640 1.003977 3.377570
v -1.610530 0.276051 2.646731
v 0.068001 0.509609 4.196609
v -0.793850 1.181881 2.775818
v -0.979282 0.279376 2.626614
v -0.124570 1.089424 2.929911
v 0.737281 0.537835 4.173869
v -0.124570 1.280761 3.569511
v -0.793850 1.402890 3.535139
v 0.737281 -0.509186 4.335059
v 0.068001 -0.509186 4.335059
v 1.797828 0.737823 4.103429
v 1.092585 0.739084 4.156236
v 1.797828 1.004337 3.399941
v -0.979282 -0.120899 3.055050
v -1.610530 -0.151469 3.003744
v 1.092585 1.021942 3.377155
v -1.610530 0.171213 2.665992
v 0.068001 0.509609 4.335059
v -0.793850 1.166887 2.821207
v -0.979282 0.137551 2.612983
v -0.124570 1.102373 2.920639
v 0.737281 0.509895 4.334841
v -0.144438 1.518664 3.409943
v -0.773982 1.580444 3.389505
v 0.717413 -0.478942 4.441771
v 0.087869 -0.478942 4.441771
v 1.780704 0.949687 4.106209
v 1.117332 0.960427 4.153253
v 1.780704 0.977366 3.382867
v -0.998021 0.133295 3.121830
v -1.591790 0.109934 3.086968
v 1.117332 1.004646 3.350863
v -1.591790 0.079860 2.604048
v 0.087869 0.479365 4.441771
v -0.773982 1.102455 2.834885
v -0.998021 0.061240 2.560956
v -0.144438 1.065754 2.882879
v 0.717413 0.479365 4.441771
v -0.144438 1.989235 2.688818
v -0.773982 1.988446 2.695230
v 0.717413 -0.478942 5.057953
v 0.087869 -0.478942 5.057953
v 1.802714 1.690903 3.911476
v 1.139342 1.728506 3.952962
v 1.802714 1.414634 3.166977
v -0.998021 0.902266 2.817172
v -1.591790 0.871330 2.789987
v 1.139342 1.420450 3.133646
v -1.591790 0.387515 2.295624
v 0.087869 0.479365 5.057953
v -0.773982 1.188716 2.375269
v -0.998021 0.355836 2.273697
v -0.144438 1.182456 2.370525
v 0.717413 0.479365 5.057953
v -0.135879 2.041366 2.515980
v -0.782541 2.040271 2.527435
v 0.725973 -0.491972 5.180019
v 0.079310 -0.491972 5.180019
v 1.816093 1.844338 3.834696
v 1.134683 1.880305 3.877550
v 1.816093 1.492970 3.103737
v -0.989948 1.071367 2.618841
v -1.599863 1.038379 2.589705
v 1.134683 1.494049 3.075471
v -1.599863 0.378517 2.257306
v 0.079310 0.492395 5.180019
v -0.782541 1.192927 2.275976
v -0.989948 0.341667 2.238793
v -0.135879 1.183201 2.267742
v 0.725973 0.492395 5.180019
v -0.164839 2.018697 2.335375
v -0.753580 2.018147 2.338222
v 0.697012 -0.447887 5.293330
v 0.108271 -0.447887 5.293330
v 1.789624 1.954274 3.707364
v 1.169247 1.995552 3.733382
v 1.789624 1.573272 3.085605
v -1.017263 1.110861 2.424349
v -1.572548 1.071582 2.402783
v 1.169247 1.566386 3.053115
v -1.572548 0.387245 2.217322
v 0.108271 0.448310 5.293330
v -0.753580 1.224976 2.199044
v -1.017263 0.353449 2.201025
v -0.164839 1.221872 2.194894
v 0.697012 0.448310 5.293330
v -0.195307 1.773795 1.841591
v -0.723113 1.776524 1.843465
v 0.666544 -0.401508 5.641069
v 0.138738 -0.401508 5.641069
v 1.769940 2.146003 3.207691
v 1.213773 2.192258 3.218370
v 1.769940 1.554521 2.956914
v -1.045999 1.112398 1.999622
v -1.543812 1.068007 1.987203
v 1.213773 1.539671 2.927281
v -1.543812 0.385929 1.932466
v 0.138738 0.401931 5.641069
v -0.723113 1.122321 2.133779
v -1.045999 0.354883 1.928278
v -0.195307 1.120852 2.135592
v 0.666544 0.401931 5.641069
v -0.353240 1.408269 1.794783
v -0.565179 1.410433 1.795056
v 0.508611 -0.161098 5.789004
v 0.296672 -0.161098 5.789004
v 1.608804 1.964278 2.918864
v 1.385477 1.965244 2.910976
v 1.608804 1.676067 2.857058
v -1.194958 0.843827 1.792706
v -1.394853 0.843672 1.790326
v 1.385477 1.680138 2.849750
v -1.394853 0.538300 1.788188
v 0.296672 0.161521 5.789004
v -0.565179 1.157648 1.973427
v -1.194958 0.542725 1.788916
v -0.353240 1.154515 1.974803
v 0.508611 0.161521 5.789004
v 0.000827 0.600257 2.551089
v -0.891452 0.463523 2.383882
v 1.835097 0.543081 2.403712
v 0.958904 0.601803 2.430611
v 0.958904 -0.634322 2.503601
v 1.835097 -0.566456 2.475736
v -1.733026 0.546728 1.953731
v -1.733026 -0.560412 1.963285
v -0.891452 -0.595671 2.673404
v 0.000827 -0.621549 2.609124
v -0.948765 -0.647325 2.010469
v -0.948765 0.604242 1.946034
v -0.059940 -0.624225 2.522881
v -0.059940 0.595660 2.457366
v 0.832339 -0.627814 2.620033
v 0.832339 0.612768 2.544535
vn 0.1462 0.9882 -0.0462
vn 0.0498 0.9208 -0.3867
vn 0.0833 -0.9406 0.3291
vn -0.1184 0.9762 0.1816
vn -0.9057 0.0037 0.4238
vn 1.0000 -0.0003 -0.0053
vn -0.2615 -0.9413 0.2134
vn -0.0158 0.9936 -0.1118
vn -0.7949 0.6063 0.0215
vn 0.7041 -0.6949 0.1458
vn -0.0853 -0.0762 0.9934
vn -0.9937 0.0036 0.1123
vn -0.1006 0.8775 0.4688
vn 0.9906 0.0244 0.1346
vn -0.9992 0.0346 0.0186
vn -0.1195 -0.9739 0.1930
vn 0.9948 -0.0411 -0.0933
vn -0.9335 0.0364 0.3567
vn -0.4270 -0.6438 0.6350
vn -0.0348 0.9982 -0.0488
vn 0.8612 0.2172 0.4595
vn -0.0093 -0.9906 0.1363
vn -0.0928 0.9760 -0.1971
vn -0.0000 -0.0000 -1.0000
vn -0.0357 -0.0000 -0.9994
vn -1.0000 -0.0000 -0.0000
vn 1.0000 -0.0000 -0.0000
vn 0.0008 0.2751 0.9614
vn -0.9590 0.2662 0.0967
vn 0.9970 0.0279 0.0719
vn 0.0534 -0.9979 -0.0369
vn -0.0710 0.9738 0.2163
vn 0.1286 -0.5848 0.8009
vn -0.9756 0.1761 0.1311
vn 0.9982 0.0485 0.0357
vn -0.9958 0.0093 0.0913
vn 0.9935 0.0025 0.1140
vn 0.5342 -0.3912 -0.7494
vn -0.0807 -0.9554 0.2841
vn -0.9897 0.1429 0.0020
vn -0.1090 0.8644 -0.4908
vn 0.9831 -0.0000 0.1830
vn 0.0368 0.6313 0.7747
vn 0.6032 0.7964 0.0439
vn -0.0000 0.9616 0.2745
vn -0.0000 -1.0000 -0.0000
vn 0.0962 -0.3323 0.9383
vn 0.0782 -0.0954 0.9924
vn 0.9998 -0.0208 -0.0079
vn -0.0544 -0.7039 0.7082
vn 0.0645 -0.5810 -0.8113
vn 0.0190 0.9849 0.1722
vn -0.0357 0.9846 0.1709
vn 0.0411 -0.4440 -0.8951
vn -0.0399 -0.9743 -0.2219
vn -0.0688 0.3625 0.9294
vn -0.9831 -0.0000 0.1830
vn -0.0000 -0.9621 0.2727
vn 0.9456 0.2465 -0.2124
vn 0.0747 0.0051 0.9972
vn 0.0417 -0.5698 0.8207
vn 0.9967 0.0805 0.0031
vn 0.9971 0.0761 -0.0098
vn -0.0629 -0.2987 0.9523
vn -0.1722 -0.6603 0.7310
vn -0.0623 -0.5053 0.8607
vn 0.9976 0.0529 -0.0454
vn 0.9777 0.2094 -0.0130
vn 0.9969 -0.0733 0.0272
vn -0.0450 -0.9292 0.3668
vn 0.0810 0.4454 0.8916
vn -0.9961 -0.0252 0.0848
vn -0.0000 1.0000 -0.0000
vn -0.9989 0.0442 -0.0166
vn 0.0041 0.8621 0.5067
vn 0.0725 0.2497 0.9656
vn -0.0636 -0.6967 -0.7145
vn 0.9995 -0.0300 -0.0011
vn 0.9689 -0.0000 0.2476
vn -0.0037 0.9932 -0.1167
vn -0.9041 0.3615 -0.2281
vn -0.0000 0.9320 0.3626
vn 0.9995 -0.0219 0.0220
vn -0.0720 0.7645 0.6406
vn -0.0151 -0.9998 -0.0085
vn 0.0312 -0.6311 -0.7751
vn 0.9989 -0.0174 0.0442
vn -0.9660 -0.1163 0.2308
vn -0.0000 0.9944 -0.1061
vn -0.9987 -0.0458 0.0221
vn 0.0018 0.9555 0.2950
vn 0.9976 -0.0000 -0.0700
vn -0.9976 -0.0000 -0.0700
vn -0.0000 -0.9944 -0.1061
vn -0.9949 0.0081 -0.1004
vn 0.9977 0.0119 -0.0675
vn 0.0189 -0.9898 0.1413
vn 0.0034 -0.5070 0.8619
vn -0.9689 -0.0000 0.2476
vn -0.0000 -0.9320 0.3626
vn -0.9420 0.0580 -0.3305
vn 0.0805 0.7691 0.6341
vn -0.0662 -0.9651 -0.2532
vn 0.9856 0.1524 -0.0733
vn 0.9899 0.0655 -0.1257
vn -0.0759 0.9836 0.1636
vn -0.0080 -0.8845 -0.4664
vn 0.0535 -0.2031 -0.9777
vn 0.9853 0.0474 -0.1640
vn -0.8314 0.1453 -0.5363
vn 0.7718 0.0596 -0.6330
vn 0.7708 0.2487 -0.5865
vn 0.0160 -0.5876 -0.8090
vn 0.0570 0.8181 -0.5723
vn -0.0000 0.9912 0.1322
vn -0.9193 0.1603 -0.3593
vn -0.0030 0.8985 -0.4390
vn 0.9962 -0.0000 0.0873
vn -0.9962 -0.0000 0.0873
vn -0.0000 -0.9912 0.1322
vn -0.9576 -0.1168 -0.2633
vn 0.0770 0.9292 0.3615
vn -0.0622 -0.9981 0.0013
vn 0.9989 0.0395 -0.0242
vn 0.9975 0.0199 -0.0674
vn -0.0884 0.9960 -0.0147
vn 0.0358 0.2095 -0.9771
vn -0.0000 -0.0000 1.0000
vn -0.0033 -0.5786 -0.8156
vn 0.0119 0.0126 -0.9999
vn 0.0084 0.6627 -0.7488
vn -0.0020 -0.9792 -0.2030
vn 0.0587 -0.5861 -0.8081
vn 0.7735 -0.2602 -0.5779
vn -0.6984 0.0050 -0.7157
vn -0.0000 0.5241 0.8517
vn -0.5228 0.1790 -0.8335
vn -0.0028 0.1299 -0.9915
vn 0.6836 -0.0000 0.7298
vn -0.6836 -0.0000 0.7298
vn -0.0000 -0.5241 0.8517
vn -0.5738 -0.4722 -0.6692
vn -0.0000 0.9980 0.0624
vn -0.0080 -0.9995 0.0321
vn -0.1602 0.9855 0.0556
vn -0.0244 -0.9982 0.0546
vn 0.6544 0.7406 0.1524
vn -0.0850 -0.9943 0.0650
vn -0.0285 -0.9993 0.0249
vn -0.0852 -0.9963 0.0111
vn -0.0000 0.9990 0.0436
vn -0.0000 -0.9995 0.0322
vn 1.0000 -0.0004 -0.0062
vn -0.9872 -0.0000 0.1598
vn -0.0712 0.9888 0.1311
vn 0.0778 -0.9968 0.0187
vn 0.0681 0.9959 0.0600
vn -0.1624 0.9844 0.0671
vn -0.0341 0.6412 -0.7666
vn -0.0597 0.9781 -0.1994
vn 0.1934 -0.8940 0.4041
vn -0.0621 0.9040 0.4229
vn -0.9312 0.0118 0.3643
vn 0.9999 -0.0065 -0.0088
vn -0.8279 -0.5556 0.0767
vn -0.0842 0.9953 -0.0487
vn -0.9991 -0.0070 0.0428
vn 0.2429 -0.9174 0.3153
vn 0.0086 -0.1654 0.9862
vn -0.9964 0.0239 0.0817
vn 0.0064 0.9349 0.3549
vn 0.9871 0.1583 0.0228
vn -0.9947 0.0024 0.1031
vn -0.0705 -0.8912 0.4482
vn 0.7360 -0.6105 -0.2925
vn -0.9700 0.0433 0.2392
vn 0.0064 -0.9754 0.2204
vn -0.0043 0.9989 -0.0462
vn 0.2809 0.1586 0.9466
vn 0.0408 -0.9830 0.1792
vn -0.3213 0.9399 -0.1156
vn 0.0055 0.2489 0.9685
vn -0.9998 0.0157 0.0117
vn 0.9935 0.0027 0.1135
vn 0.0513 -0.9979 -0.0395
vn -0.0353 0.9828 0.1812
vn 0.1019 -0.6072 0.7880
vn -0.9936 0.0484 0.1025
vn 0.9959 0.0536 0.0726
vn -0.9944 -0.0000 0.1059
vn 0.9957 0.0154 0.0917
vn 0.2541 0.3163 -0.9140
vn -0.0317 -0.9446 0.3266
vn -0.9971 0.0674 0.0363
vn -0.0165 0.7683 -0.6399
vn 0.9832 -0.0000 0.1827
vn 0.0596 0.5595 0.8267
vn -0.9929 0.1116 0.0405
vn -0.0003 0.9621 0.2727
vn 0.0498 -0.9694 -0.2405
vn 0.0673 -0.4109 0.9092
vn 0.0304 0.1806 0.9831
vn 0.9489 -0.2542 -0.1872
vn -0.0297 -0.6549 0.7551
vn 0.0588 0.9479 0.3131
vn -0.0150 -0.0190 -0.9997
vn -0.0004 1.0000 -0.0000
vn 0.0237 -0.4639 -0.8856
vn -0.0112 -0.9828 -0.1844
vn -0.0616 0.3676 0.9279
vn -0.9957 0.0877 -0.0290
vn 0.0706 -0.0074 0.9975
vn 0.0402 -0.5551 0.8308
vn -0.8771 0.4492 0.1702
vn -0.9799 0.1721 0.1006
vn -0.0466 -0.2570 0.9653
vn -0.0637 0.1884 0.9800
vn -0.0382 -0.8509 0.5239
vn -0.7865 0.5955 -0.1637
vn -0.9971 0.0548 0.0524
vn 0.9908 -0.1219 0.0586
vn -0.0430 -0.9706 0.2370
vn 0.0795 0.4405 0.8942
vn -0.9988 -0.0181 0.0453
vn -0.9996 0.0291 0.0016
vn 0.0643 0.8357 0.5454
vn 0.0746 0.2513 0.9650
vn -0.0733 -0.7061 -0.7043
vn 0.9990 -0.0425 0.0158
vn -0.0015 0.9922 -0.1243
vn -0.9791 0.1833 -0.0882
vn 0.9494 -0.1450 0.2785
vn -0.0692 0.7605 0.6456
vn -0.0102 -0.9991 -0.0415
vn 0.0340 -0.6184 -0.7851
vn 0.9963 -0.0239 0.0828
vn -0.9995 -0.0222 0.0218
vn -0.9996 -0.0259 0.0097
vn 0.0035 0.9573 0.2889
vn 0.9976 -0.0000 -0.0699
vn -0.9974 0.0187 -0.0691
vn 0.9527 -0.1247 -0.2770
vn -0.0000 -0.9782 0.2077
vn -0.0044 -0.5374 0.8433
vn -0.9866 0.0464 -0.1564
vn 0.0777 0.7626 0.6422
vn -0.0660 -0.9645 -0.2557
vn 0.9469 0.2742 -0.1680
vn 0.8229 0.1607 -0.5450
vn -0.0627 0.9763 0.2071
vn -0.0188 -0.9204 -0.3905
vn 0.0389 -0.3120 -0.9493
vn 0.9381 0.0601 -0.3410
vn -0.9889 0.0668 -0.1326
vn 0.6893 0.0091 -0.7244
vn 0.6071 0.1666 -0.7769
vn -0.0476 -0.6619 -0.7481
vn 0.0228 0.8404 -0.5415
vn -0.9949 0.0849 -0.0536
vn 0.0031 0.8958 -0.4445
vn -0.9977 0.0118 -0.0672
vn 0.0843 0.9314 0.3541
vn -0.0608 -0.9981 -0.0015
vn 0.9847 0.0681 -0.1605
vn 0.9945 0.0099 -0.1047
vn -0.0709 0.9974 0.0084
vn 0.0354 0.2098 -0.9771
vn -0.0069 -0.5765 -0.8170
vn 0.0035 0.0070 -1.0000
vn -0.0360 0.6224 -0.7819
vn -0.0129 -0.9738 -0.2272
vn 0.0192 -0.5010 -0.8652
vn 0.5773 -0.4725 -0.6660
vn -0.7674 0.0513 -0.6391
vn -0.7388 0.2745 -0.6154
vn -0.0000 0.1270 -0.9919
vn -0.7735 -0.2571 -0.5793
vn 0.1281 0.9906 0.0470
vn -0.0000 -0.9997 0.0257
vn -0.0000 0.9977 0.0675
vn -0.0844 0.9876 0.1322
vn -0.1109 -0.9937 0.0131
vn -0.0000 -0.9998 0.0218
vn 0.3797 -0.9243 0.0392
vn -0.0146 0.9983 0.0562
vn -0.0015 -0.9995 0.0321
vn 1.0000 -0.0000 -0.0067
vn -0.9878 0.0013 0.1557
vn -0.0847 0.9910 0.1041
vn 0.0822 -0.9965 0.0143
vn 0.0686 0.9959 0.0594
vn -0.0000 0.9724 0.2331
vt 0.200805 0.369731
vt 0.106749 0.267103
vt 0.200197 0.266237
vt 0.319360 0.370121
vt 0.421055 0.270072
vt 0.421251 0.372184
vt 0.421630 0.372084
vt 0.520242 0.268084
vt 0.523533 0.370130
vt 0.097886 0.432227
vt 0.013310 0.419090
vt 0.101543 0.418965
vt 0.002231 0.748874
vt 0.130559 0.735167
vt 0.132779 0.748874
vt 0.423696 0.837505
vt 0.553624 0.735431
vt 0.555881 0.837505
vt 0.635114 0.358356
vt 0.642688 0.266207
vt 0.642093 0.369703
vt 0.207782 0.358382
vt 0.300289 0.242740
vt 0.304529 0.357485
vt 0.558138 0.838778
vt 0.561205 0.887609
vt 0.558708 0.900990
vt 0.538364 0.357494
vt 0.542591 0.242746
vt 0.736140 0.267040
vt 0.651181 0.191905
vt 0.729055 0.192598
vt 0.004463 0.735167
vt 0.120049 0.661205
vt 0.093449 0.344670
vt 0.857735 0.716407
vt 0.988143 0.642458
vt 1.000000 0.716407
vt 0.702919 0.735272
vt 0.560654 0.735272
vt 0.745016 0.432162
vt 0.829558 0.418993
vt 0.836339 0.432258
vt 0.705425 0.838778
vt 0.702369 0.887609
vt 0.277265 0.735372
vt 0.135000 0.758628
vt 0.135000 0.735372
vt 0.738844 0.370565
vt 0.206841 0.243606
vt 0.277315 0.716507
vt 0.419530 0.743549
vt 0.277265 0.743549
vt 0.636043 0.243579
vt 0.322640 0.268078
vt 0.714080 0.474197
vt 0.857146 0.568567
vt 0.706015 0.568567
vt 0.857735 0.575464
vt 0.705425 0.575464
vt 0.857735 0.675520
vt 0.705425 0.675520
vt 0.857735 0.682832
vt 0.705425 0.682832
vt 0.857735 0.782888
vt 0.705425 0.782888
vt 0.857735 0.790200
vt 0.705425 0.790200
vt 0.714064 0.895652
vt 0.850755 0.895652
vt 0.146857 0.661364
vt 0.265408 0.645342
vt 0.265408 0.661364
vt 0.407723 0.642558
vt 0.289172 0.626482
vt 0.407723 0.626482
vt 0.651312 0.175863
vt 0.729186 0.176556
vt 0.407737 0.911829
vt 0.289186 0.895757
vt 0.407737 0.895757
vt 0.984051 0.260462
vt 0.854652 0.186542
vt 0.972285 0.186542
vt 0.628958 0.169137
vt 0.291752 0.168440
vt 0.421813 0.269971
vt 0.510108 0.193948
vt 0.419530 0.985819
vt 0.289186 0.911829
vt 0.436652 0.661380
vt 0.543047 0.661380
vt 0.419580 0.716507
vt 0.289172 0.642558
vt 0.191660 0.191937
vt 0.741349 0.418900
vt 0.822904 0.344679
vt 0.572511 0.661264
vt 0.691062 0.661264
vt 0.414741 0.195612
vt 0.292691 0.613940
vt 0.404204 0.613940
vt 0.653756 0.163196
vt 0.727007 0.163848
vt 0.292725 0.883201
vt 0.404237 0.883200
vt 0.291621 0.152398
vt 0.215916 0.140411
vt 0.289164 0.139732
vt 0.551215 0.152401
vt 0.629089 0.153095
vt 0.572511 0.645242
vt 0.691062 0.645242
vt 0.428086 0.195520
vt 0.509663 0.177911
vt 0.019793 0.328732
vt 0.093318 0.328628
vt 0.436652 0.645352
vt 0.543047 0.645352
vt 0.854652 0.170465
vt 0.972285 0.170465
vt 0.749399 0.344602
vt 0.823035 0.328637
vt 0.113657 0.176617
vt 0.191528 0.175895
vt 0.333174 0.177914
vt 0.415185 0.179575
vt 0.869592 0.642458
vt 0.988143 0.626382
vt 0.014972 0.645183
vt 0.120049 0.645183
vt 0.213881 0.169162
vt 0.873111 0.613840
vt 0.984624 0.542292
vt 0.984624 0.613840
vt 0.413051 0.166859
vt 0.337886 0.093922
vt 0.415028 0.095485
vt 0.115823 0.163908
vt 0.188487 0.091834
vt 0.189071 0.163229
vt 0.751842 0.315894
vt 0.821565 0.244571
vt 0.820984 0.315967
vt 0.150376 0.632751
vt 0.261888 0.632751
vt 0.626910 0.140387
vt 0.576031 0.632651
vt 0.687543 0.632651
vt 0.427642 0.179483
vt 0.506916 0.165291
vt 0.021833 0.316061
vt 0.090993 0.315963
vt 0.439830 0.632752
vt 0.539908 0.632752
vt 0.858144 0.157932
vt 0.968793 0.157932
vt 0.749529 0.328560
vt 0.335909 0.165296
vt 0.018091 0.632606
vt 0.116930 0.632606
vt 0.439830 0.561417
vt 0.541260 0.547391
vt 0.539908 0.561417
vt 0.090409 0.244568
vt 0.020211 0.230654
vt 0.091251 0.230554
vt 0.427784 0.095397
vt 0.505580 0.079891
vt 0.504936 0.093918
vt 0.687543 0.561345
vt 0.574514 0.547324
vt 0.689059 0.547324
vt 0.018091 0.561301
vt 0.116930 0.561301
vt 0.288580 0.068337
vt 0.292725 0.811672
vt 0.404237 0.811672
vt 0.654338 0.091800
vt 0.727588 0.092453
vt 0.404204 0.542392
vt 0.261888 0.561445
vt 0.553659 0.139734
vt 0.627491 0.068991
vt 0.576031 0.561345
vt 0.429764 0.166770
vt 0.021249 0.244666
vt 0.968793 0.086384
vt 0.291175 0.528284
vt 0.400590 0.514906
vt 0.405720 0.528284
vt 0.653443 0.077787
vt 0.725470 0.064827
vt 0.728686 0.078457
vt 0.405745 0.797575
vt 0.296358 0.784175
vt 0.400643 0.784175
vt 0.214239 0.055021
vt 0.285937 0.040754
vt 0.289479 0.054323
vt 0.858144 0.086384
vt 0.970298 0.072272
vt 0.751586 0.230485
vt 0.822608 0.230560
vt 0.114147 0.078518
vt 0.189387 0.077820
vt 0.337247 0.079894
vt 0.416487 0.081499
vt 0.873111 0.542292
vt 0.986140 0.528184
vt 0.016747 0.547274
vt 0.118274 0.547274
vt 0.291200 0.797575
vt 0.292691 0.542392
vt 0.150376 0.561445
vt 0.263405 0.547424
vt 0.554241 0.068339
vt 0.628589 0.054996
vt 0.113727 0.533827
vt 0.026078 0.493236
vt 0.108944 0.493236
vt 0.876725 0.514806
vt 0.975613 0.474197
vt 0.981010 0.514806
vt 0.413240 0.067855
vt 0.345883 0.025720
vt 0.410558 0.027030
vt 0.117344 0.064887
vt 0.181902 0.023497
vt 0.185845 0.064252
vt 0.148860 0.547424
vt 0.258275 0.533958
vt 0.553346 0.054326
vt 0.625372 0.041366
vt 0.579644 0.533858
vt 0.683929 0.533858
vt 0.426330 0.081410
vt 0.501711 0.066387
vt 0.023224 0.217078
vt 0.087902 0.216987
vt 0.438461 0.547391
vt 0.536684 0.533915
vt 0.856640 0.072272
vt 0.965208 0.058907
vt 0.754917 0.216916
vt 0.819577 0.216985
vt 0.341098 0.066394
vt 0.871595 0.528184
vt 0.021294 0.533827
vt 0.867085 0.018310
vt 0.930964 0.000000
vt 0.959852 0.018310
vt 0.447966 0.493280
vt 0.508010 0.474197
vt 0.531870 0.493280
vt 0.119338 0.883785
vt 0.078562 0.854126
vt 0.101821 0.853838
vt 0.199739 0.764026
vt 0.154801 0.786685
vt 0.135000 0.758628
vt 0.217437 0.041389
vt 0.281995 0.000000
vt 0.301784 0.743549
vt 0.395275 0.743549
vt 0.656966 0.064217
vt 0.722301 0.024008
vt 0.296305 0.514906
vt 0.395193 0.474297
vt 0.153990 0.533958
vt 0.252878 0.493345
vt 0.556869 0.040756
vt 0.622204 0.000547
vt 0.585041 0.493245
vt 0.678532 0.493245
vt 0.429559 0.067770
vt 0.496906 0.025710
vt 0.026178 0.176317
vt 0.084161 0.176234
vt 0.443093 0.533915
vt 0.861730 0.058907
vt 0.758637 0.176163
vt 0.816605 0.176224
vt 0.154801 0.821961
vt 0.180797 0.786669
vt 0.180797 0.822471
vt 0.217930 0.822899
vt 0.242591 0.785422
vt 0.242591 0.822882
vt 0.018192 0.855490
vt 0.042852 0.818013
vt 0.042852 0.855472
vt 0.078562 0.818668
vt 0.101821 0.818924
vt 0.061414 0.796200
vt 0.000000 0.884551
vt 0.061414 0.884507
vt 0.135000 0.851917
vt 0.199739 0.847748
vt 0.061414 0.791219
vt 0.049743 0.474297
vt 0.085278 0.474297
vt 0.199739 0.851960
vt 0.261153 0.851917
vt 0.018192 0.818030
vt 0.000000 0.791262
vt 0.261153 0.758628
vt 0.159387 0.493345
vt 0.224903 0.474297
vt 0.217930 0.785440
vt 0.199739 0.758672
vt 0.613016 0.474197
vt 0.650557 0.474197
vt 0.308770 0.472230
vt 0.316081 0.472163
vt 0.634186 0.473133
vt 0.208723 0.473158
vt 0.741548 0.474090
vt 0.101366 0.474153
vt 0.104057 0.370628
vt 0.748449 0.474097
vt 0.842887 0.474197
vt 0.534136 0.472242
vt 0.641498 0.473198
vt 0.558138 0.939579
vt 0.000000 0.791219
vt 0.135000 0.791219
vt 0.094463 0.474163
vt 0.006538 0.432357
vt 0.526824 0.472177
vt 0.421446 0.474297
vt 0.201412 0.473226
vt 0.425947 0.735431
vt 0.014972 0.661205
vt 0.019924 0.344774
vt 0.704855 0.900990
vt 0.277265 0.758628
vt 0.849080 0.474197
vt 0.146857 0.645342
vt 0.842887 0.260462
vt 0.551084 0.168443
vt 0.277265 0.985819
vt 0.113788 0.192659
vt 0.332730 0.193951
vt 0.213750 0.153120
vt 0.869592 0.626382
vt 0.115239 0.092513
vt 0.752424 0.244498
vt 0.215332 0.069016
vt 0.882122 0.474197
vt 0.120492 0.024067
vt 0.895974 0.000000
vt 0.472130 0.474197
vt 0.061414 0.878886
vt 0.220584 0.000569
vt 0.660888 0.023461
vt 0.301702 0.474297
vt 0.560791 -0.000000
vt 0.432222 0.026950
vt 0.119338 0.791219
vt 0.187361 0.474297
vt 0.421446 0.939579
vt 0.000000 0.474297
vt 0.421446 0.474197
s 0
f 174/1/1 18/2/1 27/3/1
f 164/4/2 14/5/2 163/6/2
f 166/7/3 15/8/3 165/9/3
f 172/10/4 11/11/4 23/12/4
f 168/13/5 11/14/5 167/15/5
f 163/16/6 12/17/6 166/18/6
f 170/19/7 28/20/7 173/21/7
f 161/22/8 31/23/8 176/24/8
f 169/25/9 24/26/9 171/27/9
f 175/28/10 15/8/10 32/29/10
f 17/30/11 33/31/11 34/32/11
f 13/33/12 43/34/12 11/14/12
f 11/11/13 46/35/13 23/12/13
f 27/36/14 33/37/14 28/38/14
f 18/39/15 24/26/15 17/40/15
f 171/41/16 13/42/16 168/43/16
f 162/44/17 23/45/17 18/39/17
f 19/46/18 28/47/18 16/48/18
f 169/49/19 28/20/19 17/30/19
f 161/22/20 27/3/20 19/50/20
f 31/51/21 15/52/21 20/53/21
f 175/28/22 16/54/22 170/19/22
f 176/24/23 20/55/23 164/4/23
f 3/56/24 21/57/24 22/58/24
f 22/58/24 8/59/24 7/60/24
f 7/60/24 25/61/24 26/62/24
f 26/62/24 9/63/24 6/64/24
f 6/64/24 29/65/24 30/66/24
f 30/66/24 10/67/24 5/68/24
f 2/69/25 10/67/25 4/70/25
f 36/71/26 60/72/26 44/73/26
f 35/74/27 64/75/27 51/76/27
f 34/32/28 49/77/28 50/78/28
f 42/79/29 54/80/29 58/81/29
f 24/82/30 46/83/30 40/84/30
f 32/29/31 36/85/31 16/54/31
f 19/50/32 48/86/32 31/23/32
f 12/87/33 38/88/33 15/8/33
f 20/89/34 38/90/34 42/79/34
f 12/17/35 39/91/35 37/92/35
f 16/48/36 44/73/36 19/46/36
f 32/93/37 48/94/37 35/74/37
f 18/2/38 47/95/38 27/3/38
f 24/96/39 41/97/39 13/42/39
f 18/39/40 34/98/40 45/99/40
f 20/55/41 39/100/41 14/5/41
f 51/76/42 80/101/42 67/102/42
f 50/78/43 65/103/43 66/104/43
f 58/81/44 70/105/44 74/106/44
f 64/107/45 76/108/45 80/109/45
f 36/85/46 51/110/46 52/111/46
f 45/99/27 50/112/27 61/113/27
f 37/114/47 54/115/47 38/88/47
f 46/35/48 59/116/48 62/117/48
f 37/92/49 55/118/49 53/119/49
f 40/84/27 62/120/27 56/121/27
f 40/122/50 57/123/50 41/97/50
f 47/95/51 61/124/51 63/125/51
f 39/100/52 58/126/52 55/127/52
f 47/128/27 49/129/27 33/37/27
f 43/34/27 57/130/27 59/131/27
f 44/132/53 64/107/53 48/86/53
f 79/133/27 81/134/27 65/135/27
f 71/136/54 90/137/54 87/138/54
f 77/139/55 95/140/55 79/141/55
f 72/142/56 89/143/56 73/144/56
f 60/72/57 68/145/57 76/146/57
f 51/110/58 68/147/58 52/111/58
f 61/113/59 66/148/59 77/149/59
f 53/150/60 70/151/60 54/115/60
f 62/117/61 75/152/61 78/153/61
f 53/119/62 71/154/62 69/155/62
f 56/121/63 78/156/63 72/157/63
f 56/158/64 73/144/64 57/123/64
f 61/124/65 79/141/65 63/125/65
f 55/127/66 74/159/66 71/136/66
f 49/129/67 79/133/67 65/135/67
f 59/131/68 73/160/68 75/161/68
f 87/162/69 101/163/69 85/164/69
f 94/165/70 107/166/70 110/167/70
f 85/168/71 102/169/71 86/170/71
f 93/171/72 98/172/72 109/173/72
f 75/161/26 89/174/26 91/175/26
f 76/108/73 96/176/73 80/109/73
f 74/106/74 86/177/74 90/178/74
f 66/104/75 81/179/75 82/180/75
f 80/101/27 83/181/27 67/102/27
f 68/145/26 92/182/26 76/146/26
f 67/183/46 84/184/46 68/147/46
f 77/149/26 82/185/26 93/171/26
f 69/186/76 86/170/76 70/151/76
f 78/153/77 91/187/77 94/165/77
f 71/154/78 85/164/78 69/155/78
f 78/156/27 88/188/27 72/157/27
f 112/189/79 115/190/79 99/191/79
f 97/192/80 114/193/80 98/194/80
f 106/195/81 118/196/81 122/197/81
f 108/198/82 128/199/82 112/200/82
f 94/201/83 104/202/83 88/188/83
f 89/143/84 104/203/84 105/204/84
f 95/140/85 109/205/85 111/206/85
f 87/138/86 106/207/86 103/208/86
f 95/209/87 97/210/87 81/134/87
f 91/175/88 105/211/88 107/212/88
f 96/176/89 108/198/89 112/200/89
f 90/178/90 102/213/90 106/195/90
f 81/179/91 98/194/91 82/180/91
f 96/214/92 99/191/92 83/181/92
f 84/215/93 108/216/93 92/182/93
f 83/217/94 100/218/94 84/184/94
f 123/219/95 137/220/95 139/221/95
f 127/222/96 129/223/96 113/224/96
f 119/225/97 138/226/97 135/227/97
f 125/228/98 143/229/98 127/230/98
f 100/231/99 124/232/99 108/216/99
f 99/233/100 116/234/100 100/218/100
f 109/173/101 114/235/101 125/236/101
f 101/237/102 118/238/102 102/169/102
f 110/167/103 123/239/103 126/240/103
f 103/241/104 117/242/104 101/163/104
f 110/243/105 120/244/105 104/202/105
f 105/204/106 120/245/106 121/246/106
f 111/206/107 125/228/107 127/230/107
f 103/208/108 122/247/108 119/225/108
f 111/248/109 113/224/109 97/210/109
f 107/212/110 121/249/110 123/219/110
f 142/250/111 152/251/111 136/252/111
f 135/253/112 149/254/112 133/255/112
f 142/256/113 155/257/113 158/258/113
f 133/259/114 150/260/114 134/261/114
f 124/262/115 144/263/115 128/199/115
f 122/197/116 134/264/116 138/265/116
f 113/266/117 130/267/117 114/193/117
f 128/268/118 131/269/118 115/190/118
f 116/270/119 140/271/119 124/232/119
f 115/272/120 132/273/120 116/234/120
f 125/236/121 130/274/121 141/275/121
f 117/276/122 134/277/122 118/238/122
f 126/240/123 139/278/123 142/279/123
f 119/280/124 133/255/124 117/242/124
f 126/281/125 136/252/125 120/244/125
f 121/246/126 136/282/126 137/283/126
f 154/284/127 149/285/127 151/286/127
f 156/287/128 147/288/128 160/289/128
f 157/290/129 145/291/129 159/292/129
f 158/258/130 153/293/130 152/294/130
f 137/295/131 152/294/131 153/293/131
f 141/296/132 159/292/132 143/297/132
f 138/298/133 151/286/133 135/299/133
f 143/297/134 145/291/134 129/300/134
f 139/221/135 153/301/135 155/302/135
f 140/303/136 160/289/136 144/304/136
f 138/298/137 150/260/137 154/284/137
f 129/300/138 146/305/138 130/306/138
f 144/304/139 147/288/139 131/307/139
f 132/308/140 156/309/140 140/271/140
f 131/307/141 148/310/141 132/311/141
f 141/275/142 146/312/142 157/313/142
f 29/314/143 164/4/143 10/315/143
f 6/316/144 175/28/144 170/19/144
f 9/317/145 174/1/145 161/22/145
f 7/318/146 173/21/146 169/49/146
f 8/319/147 172/10/147 162/320/147
f 22/321/148 168/43/148 3/322/148
f 30/323/149 165/9/149 175/28/149
f 7/318/150 171/41/150 22/321/150
f 9/317/151 176/24/151 29/314/151
f 6/316/152 173/21/152 26/324/152
f 2/325/153 163/16/153 166/18/153
f 3/326/154 167/15/154 1/327/154
f 21/328/155 167/329/155 172/10/155
f 5/330/156 166/7/156 165/9/156
f 10/315/157 163/6/157 4/331/157
f 25/332/158 162/320/158 174/1/158
f 174/1/159 162/320/159 18/2/159
f 164/4/160 20/55/160 14/5/160
f 166/7/161 12/87/161 15/8/161
f 172/10/162 167/329/162 11/11/162
f 168/13/163 13/33/163 11/14/163
f 163/16/164 14/333/164 12/17/164
f 170/19/165 16/54/165 28/20/165
f 161/22/166 19/50/166 31/23/166
f 169/25/167 17/40/167 24/26/167
f 175/28/168 165/9/168 15/8/168
f 17/30/169 28/20/169 33/31/169
f 13/33/170 41/334/170 43/34/170
f 11/11/171 43/335/171 46/35/171
f 27/36/172 47/128/172 33/37/172
f 18/39/173 23/45/173 24/26/173
f 171/41/174 24/96/174 13/42/174
f 162/44/175 172/336/175 23/45/175
f 19/46/176 27/337/176 28/47/176
f 169/49/177 173/21/177 28/20/177
f 161/22/178 174/1/178 27/3/178
f 31/51/179 32/93/179 15/52/179
f 175/28/180 32/29/180 16/54/180
f 176/24/181 31/23/181 20/55/181
f 3/56/24 1/338/24 21/57/24
f 22/58/24 21/57/24 8/59/24
f 7/60/24 8/59/24 25/61/24
f 26/62/24 25/61/24 9/63/24
f 6/64/24 9/63/24 29/65/24
f 30/66/24 29/65/24 10/67/24
f 2/69/25 5/68/25 10/67/25
f 36/71/26 52/339/26 60/72/26
f 35/74/27 48/94/27 64/75/27
f 34/32/182 33/31/182 49/77/182
f 42/79/183 38/90/183 54/80/183
f 24/82/184 23/340/184 46/83/184
f 32/29/185 35/341/185 36/85/185
f 19/50/186 44/132/186 48/86/186
f 12/87/187 37/114/187 38/88/187
f 20/89/188 15/342/188 38/90/188
f 12/17/189 14/333/189 39/91/189
f 16/48/190 36/71/190 44/73/190
f 32/93/191 31/51/191 48/94/191
f 18/2/192 45/343/192 47/95/192
f 24/96/193 40/122/193 41/97/193
f 18/39/194 17/40/194 34/98/194
f 20/55/195 42/344/195 39/100/195
f 51/76/196 64/75/196 80/101/196
f 50/78/197 49/77/197 65/103/197
f 58/81/198 54/80/198 70/105/198
f 64/107/199 60/345/199 76/108/199
f 36/85/200 35/341/200 51/110/200
f 45/99/26 34/98/26 50/112/26
f 37/114/201 53/150/201 54/115/201
f 46/35/202 43/335/202 59/116/202
f 37/92/203 39/91/203 55/118/203
f 40/84/26 46/83/26 62/120/26
f 40/122/204 56/158/204 57/123/204
f 47/95/205 45/343/205 61/124/205
f 39/100/206 42/344/206 58/126/206
f 47/128/27 63/346/27 49/129/27
f 43/34/26 41/334/26 57/130/26
f 44/132/207 60/345/207 64/107/207
f 79/133/27 95/209/27 81/134/27
f 71/136/208 74/159/208 90/137/208
f 77/139/209 93/347/209 95/140/209
f 72/142/210 88/348/210 89/143/210
f 60/72/57 52/339/57 68/145/57
f 51/110/58 67/183/58 68/147/58
f 61/113/211 50/112/211 66/148/211
f 53/150/212 69/186/212 70/151/212
f 62/117/213 59/116/213 75/152/213
f 53/119/214 55/118/214 71/154/214
f 56/121/215 62/120/215 78/156/215
f 56/158/216 72/142/216 73/144/216
f 61/124/217 77/139/217 79/141/217
f 55/127/218 58/126/218 74/159/218
f 49/129/219 63/346/219 79/133/219
f 59/131/220 57/130/220 73/160/220
f 87/162/221 103/241/221 101/163/221
f 94/165/222 91/187/222 107/166/222
f 85/168/223 101/237/223 102/169/223
f 93/171/224 82/185/224 98/172/224
f 75/161/26 73/160/26 89/174/26
f 76/108/73 92/349/73 96/176/73
f 74/106/225 70/105/225 86/177/225
f 66/104/226 65/103/226 81/179/226
f 80/101/27 96/214/27 83/181/27
f 68/145/26 84/215/26 92/182/26
f 67/183/46 83/217/46 84/184/46
f 77/149/26 66/148/26 82/185/26
f 69/186/227 85/168/227 86/170/227
f 78/153/228 75/152/228 91/187/228
f 71/154/229 87/162/229 85/164/229
f 78/156/27 94/201/27 88/188/27
f 112/189/79 128/268/79 115/190/79
f 97/192/230 113/266/230 114/193/230
f 106/195/231 102/213/231 118/196/231
f 108/198/82 124/262/82 128/199/82
f 94/201/232 110/243/232 104/202/232
f 89/143/233 88/348/233 104/203/233
f 95/140/234 93/347/234 109/205/234
f 87/138/235 90/137/235 106/207/235
f 95/209/236 111/248/236 97/210/236
f 91/175/237 89/174/237 105/211/237
f 96/176/89 92/349/89 108/198/89
f 90/178/238 86/177/238 102/213/238
f 81/179/239 97/192/239 98/194/239
f 96/214/240 112/189/240 99/191/240
f 84/215/93 100/231/93 108/216/93
f 83/217/94 99/233/94 100/218/94
f 123/219/241 121/249/241 137/220/241
f 127/222/242 143/350/242 129/223/242
f 119/225/243 122/247/243 138/226/243
f 125/228/244 141/351/244 143/229/244
f 100/231/99 116/270/99 124/232/99
f 99/233/100 115/272/100 116/234/100
f 109/173/245 98/172/245 114/235/245
f 101/237/246 117/276/246 118/238/246
f 110/167/247 107/166/247 123/239/247
f 103/241/248 119/280/248 117/242/248
f 110/243/249 126/281/249 120/244/249
f 105/204/250 104/203/250 120/245/250
f 111/206/251 109/205/251 125/228/251
f 103/208/252 106/207/252 122/247/252
f 111/248/253 127/222/253 113/224/253
f 107/212/254 105/211/254 121/249/254
f 142/250/255 158/352/255 152/251/255
f 135/253/256 151/353/256 149/254/256
f 142/256/257 139/354/257 155/257/257
f 133/259/258 149/285/258 150/260/258
f 124/262/115 140/355/115 144/263/115
f 122/197/259 118/196/259 134/264/259
f 113/266/260 129/356/260 130/267/260
f 128/268/118 144/357/118 131/269/118
f 116/270/119 132/308/119 140/271/119
f 115/272/120 131/358/120 132/273/120
f 125/236/261 114/235/261 130/274/261
f 117/276/262 133/359/262 134/277/262
f 126/240/263 123/239/263 139/278/263
f 119/280/264 135/253/264 133/255/264
f 126/281/265 142/250/265 136/252/265
f 121/246/266 120/245/266 136/282/266
f 154/284/267 150/260/267 149/285/267
f 156/287/128 148/310/128 147/288/128
f 157/290/268 146/305/268 145/291/268
f 158/258/269 155/257/269 153/293/269
f 137/295/270 136/360/270 152/294/270
f 141/296/271 157/290/271 159/292/271
f 138/298/272 154/284/272 151/286/272
f 143/297/273 159/292/273 145/291/273
f 139/221/274 137/220/274 153/301/274
f 140/303/136 156/287/136 160/289/136
f 138/298/275 134/261/275 150/260/275
f 129/300/276 145/291/276 146/305/276
f 144/304/139 160/289/139 147/288/139
f 132/308/140 148/361/140 156/309/140
f 131/307/141 147/288/141 148/310/141
f 141/275/277 130/274/277 146/312/277
f 29/314/278 176/24/278 164/4/278
f 6/316/279 30/323/279 175/28/279
f 9/317/280 25/332/280 174/1/280
f 7/318/152 26/324/152 173/21/152
f 8/319/281 21/328/281 172/10/281
f 22/321/282 171/41/282 168/43/282
f 30/323/283 5/330/283 165/9/283
f 7/318/284 169/49/284 171/41/284
f 9/317/285 161/22/285 176/24/285
f 6/316/286 170/19/286 173/21/286
f 2/325/287 4/362/287 163/16/287
f 3/326/288 168/13/288 167/15/288
f 21/328/289 1/363/289 167/329/289
f 5/330/290 2/364/290 166/7/290
f 10/315/291 164/4/291 163/6/291
f 25/332/292 8/319/292 162/320/292
